<svg width="164" height="164" viewBox="0 0 164 164" fill="none" xmlns="http://www.w3.org/2000/svg">
<path d="M164 31.6634L126.28 0L115.62 12.1782L153.34 43.8416L164 31.6634ZM48.38 12.9901L37.72 0.811881L0 31.6634L10.66 43.8416L48.38 12.9901V12.9901ZM86.1 50.3366H73.8V99.0495L112.34 122.594L118.9 112.851L86.1 93.3663V50.3366ZM82 17.8614C41 17.8614 8.2 50.3366 8.2 90.9307C8.2 131.525 41 164 82 164C123 164 155.8 131.525 155.8 90.9307C155.8 50.3366 123 17.8614 82 17.8614ZM82 147.762C50.02 147.762 24.6 122.594 24.6 90.9307C24.6 59.2673 50.02 34.099 82 34.099C113.98 34.099 139.4 59.2673 139.4 90.9307C139.4 122.594 113.98 147.762 82 147.762Z" fill="#EEEEEE"/>
</svg>
