<svg width="19" height="18" viewBox="0 0 19 18" fill="none" xmlns="http://www.w3.org/2000/svg">
<path fill-rule="evenodd" clip-rule="evenodd" d="M17.7283 0.725C17.2139 0.261115 16.5188 0.000572261 15.7942 0C15.1665 0.00185554 14.5583 0.198875 14.0708 0.558333L5.48167 6.90833L5.34417 7.03333C4.14703 8.11232 3.88146 9.78192 4.69333 11.125C4.36025 11.0326 4.01482 10.9821 3.66667 10.975C1.64162 10.975 0 12.4674 0 14.3083V16.3917C0 17.082 0.615608 17.6417 1.375 17.6417H3.66667C4.93956 17.6353 6.11775 17.0293 6.77924 16.0406C7.44073 15.0519 7.49086 13.8221 6.91167 12.7917C7.27803 12.9041 7.66166 12.9632 8.04833 12.9667C9.06359 12.9729 10.0386 12.6063 10.7525 11.95L10.8442 11.8583L17.875 4.05C18.7625 3.06876 18.6994 1.63849 17.7283 0.725ZM3.70333 16.3917H1.41167V14.3083C1.41167 13.1577 2.43768 12.225 3.70333 12.225C4.96899 12.225 5.995 13.1577 5.995 14.3083C5.995 15.4589 4.96899 16.3917 3.70333 16.3917ZM9.8175 11.075L16.8483 3.25833C17.2793 2.76758 17.2359 2.06079 16.7474 1.61675C16.259 1.17271 15.4815 1.13321 14.9417 1.525L6.3525 7.91667C5.39314 8.78652 5.39108 10.1987 6.34792 11.0708C7.30475 11.943 8.85814 11.9448 9.8175 11.075Z" fill="black"/>
<path d="M10.1108 6.76667L7.36083 9.26667C7.09275 9.51068 7.09275 9.90599 7.36083 10.15C7.62925 10.3937 8.06408 10.3937 8.3325 10.15L11.0825 7.65C11.2664 7.49419 11.3421 7.25954 11.2799 7.03809C11.2177 6.81665 11.0275 6.64373 10.7839 6.58718C10.5403 6.53063 10.2822 6.59946 10.1108 6.76667Z" fill="black"/>
</svg>
