<svg width="480" height="480" viewBox="0 0 480 480" fill="none" xmlns="http://www.w3.org/2000/svg">
<path fill-rule="evenodd" clip-rule="evenodd" d="M240.001 0C323.829 0 359.47 17.2092 372.894 88.7233C396.664 91.7865 420.354 95.6748 443.922 100.388C454.753 102.555 461.778 113.091 459.611 123.922C457.445 134.754 446.909 141.778 436.078 139.612C429.607 138.317 423.127 137.088 416.638 135.923C434.467 166.325 440 212.096 440 280C440 418.87 416.858 465.173 312.727 476.755C291.884 479.073 267.796 480 240 480C73.3333 480 39.9999 446.667 39.9999 280C39.9999 212.096 45.533 166.325 63.362 135.923C56.8731 137.088 50.3929 138.317 43.9223 139.612C33.0911 141.778 22.5546 134.754 20.3883 123.922C18.2221 113.091 25.2464 102.555 36.0776 100.388C59.6461 95.6747 83.3372 91.7863 107.108 88.7231C120.531 17.2092 156.173 0 240.001 0ZM294.875 81.6451C278.421 80.4891 260.189 80 240 80C219.811 80 201.579 80.4891 185.125 81.6451C173.098 82.2807 161.08 83.1253 149.075 84.1791C152.076 72.7596 155.564 65.3761 159.02 60.4385C166.823 49.2912 181.998 40 240.001 40C298.004 40 313.178 49.2912 320.981 60.4385C324.438 65.3761 327.925 72.7596 330.927 84.1792C318.921 83.1254 306.902 82.2807 294.875 81.6451ZM187.594 121.57C171.728 122.694 158.304 124.447 146.871 126.913C124.991 131.632 113.187 138.381 105.784 145.784C98.3811 153.187 91.6324 164.992 86.9133 186.871C82.0971 209.2 79.9999 239.126 79.9999 280C79.9999 320.874 82.0971 350.8 86.9133 373.129C91.6324 395.008 98.3811 406.813 105.784 414.216C113.187 421.619 124.991 428.368 146.871 433.087C169.2 437.903 199.126 440 240 440C267.05 440 289.512 439.09 308.305 437C355.566 431.743 372.171 419.973 381.399 405.061C393.524 385.469 400 350.079 400 280C400 239.126 397.903 209.2 393.086 186.871C388.367 164.992 381.619 153.187 374.216 145.784C366.812 138.381 355.008 131.632 333.129 126.913C321.696 124.447 308.272 122.694 292.406 121.57C257.493 119.738 222.507 119.738 187.594 121.57ZM171.99 160.099C182.981 161.198 191 170.999 189.901 181.99L186.667 214.328C182.3 258 182.3 302 186.667 345.672L189.901 378.01C191 389.001 182.981 398.802 171.99 399.901C160.999 401 151.198 392.981 150.099 381.99L146.865 349.653C142.234 303.333 142.234 256.667 146.865 210.347L150.099 178.01C151.198 167.019 160.999 159 171.99 160.099ZM290.099 181.99C289 170.999 297.019 161.198 308.01 160.099C319.001 159 328.802 167.019 329.901 178.01L333.134 210.347C337.766 256.667 337.766 303.333 333.134 349.653L329.901 381.99C328.802 392.981 319.001 401 308.01 399.901C297.019 398.802 289 389.001 290.099 378.01L293.333 345.672C297.7 302 297.7 258 293.333 214.328L290.099 181.99Z" fill="white"/>
</svg>
